<?xml version="1.0" encoding="iso-8859-1"?>
<!-- Generator: Adobe Illustrator 19.1.0, SVG Export Plug-In . SVG Version: 6.00 Build 0)  -->
<svg version="1.1" id="Layer_1" xmlns="http://www.w3.org/2000/svg" xmlns:xlink="http://www.w3.org/1999/xlink" x="0px" y="0px" width="100px" height="100px" viewBox="0 0 100 100" style="enable-background:new 0 0 100 100;" xml:space="preserve">
<circle fill="#75BB43" class="st1" cx="44.1" cy="43.8" r="40.1"></circle>
<polyline fill="#75BB43" class="st1" points="63.3,73.4 90,86 71.8,62.5 "></polyline>
<g>
	<path fill="#fff" class="st0" d="M46.1,51.2h-4.7c0-0.1-0.2-0.5-0.5-1.2c-0.3-0.7-0.4-1.3-0.4-1.9c0-1,0.1-2,0.4-3c0.3-0.9,0.7-1.8,1.3-2.6
		c0.6-0.8,1.6-2.1,3.3-3.9S48,35.2,48,34c0-2.3-1.5-3.4-4.5-3.4c-1.4,0-3,0.7-4.5,2.2l-2.5-4.7c2.1-1.6,4.9-2.5,8.3-2.5
		c2.6,0,4.8,0.7,6.6,2.2c1.8,1.5,2.6,3.4,2.6,5.8c0,1.7-0.3,3.1-1,4.2c-0.6,1.1-1.8,2.5-3.4,4c-1.6,1.5-2.7,2.8-3.2,3.9
		s-0.7,2.1-0.7,3.4C45.8,49.4,45.9,50.1,46.1,51.2z M44.1,54.5c1.1,0,2,0.4,2.8,1.2c0.8,0.8,1.2,1.7,1.2,2.8c0,1.1-0.4,2.1-1.2,2.8
		c-0.8,0.8-1.7,1.2-2.8,1.2c-1.1,0-2.1-0.4-2.8-1.2s-1.2-1.7-1.2-2.8c0-1.1,0.4-2.1,1.2-2.8S43,54.5,44.1,54.5z"></path>
</g>
</svg>